<svg xmlns="http://www.w3.org/2000/svg" version="1.1" xmlns:xlink="http://www.w3.org/1999/xlink" xmlns:svgjs="http://svgjs.dev/svgjs" width="1440" height="560" preserveAspectRatio="none" viewBox="0 0 1440 560"><g mask="url(&quot;#SvgjsMask1009&quot;)" fill="none"><rect width="1440" height="560" x="0" y="0" fill="rgba(15, 23, 43, 1)"></rect><path d="M1509.49 284.64C1404.28 284.4 1302 214.64 1094.51 214.64 887.01 214.64 894.13 286.48 679.52 284.64 464.92 282.8 390.25 9.15 264.54-4.65" stroke="rgba(51,121,194,0.58)" stroke-width="2"></path><path d="M1672.59 505.13C1567.72 497.47 1535.88 322.67 1309.79 292.33 1083.71 261.99 1068.79-22.88 947-48.08" stroke="rgba(51,121,194,0.58)" stroke-width="2"></path><path d="M1542.89 475.03C1376.31 472.2 1183.73 281.06 911.38 262.23 639.03 243.4 706.35-40.01 595.63-68.27" stroke="rgba(51,121,194,0.58)" stroke-width="2"></path><path d="M1548.96 277.61C1379.09 280.12 1234.95 487.11 901.78 484.81 568.62 482.51 460.47-8.2 254.61-39.73" stroke="rgba(51,121,194,0.58)" stroke-width="2"></path><path d="M1555.48 158.46C1397.54 162.47 1191.94 388.95 966.69 388.06 741.45 387.17 788.5 28.28 672.3-19.78" stroke="rgba(51,121,194,0.58)" stroke-width="2"></path></g><defs><mask id="SvgjsMask1009"><rect width="1440" height="560" fill="#ffffff"></rect></mask></defs></svg>